<?xml version="1.0" encoding="utf-8"?>
<!-- Generator: Adobe Illustrator 19.2.1, SVG Export Plug-In . SVG Version: 6.00 Build 0)  -->
<svg version="1.1" id="Layer_1" xmlns="http://www.w3.org/2000/svg" xmlns:xlink="http://www.w3.org/1999/xlink" x="0px" y="0px"
	 viewBox="0 0 296.4 282.7" style="enable-background:new 0 0 296.4 282.7;" xml:space="preserve">
<style type="text/css">
	.st0{fill:#0997D9;}
</style>
<path class="st0" d="M40.9,137.9c0,2.6-1.1,3.9-3.3,3.9s-3.3-1.2-3.3-3.9v-19.1h-9.6v19c0,7.4,4.7,11.8,12.9,11.8s13-4.4,13-11.8
	v-19H41L40.9,137.9L40.9,137.9z"/>
<polygon class="st0" points="63.9,133.9 74.5,149.1 83.5,149.1 83.5,118.8 74,118.8 74,132.9 64.1,118.8 54.4,118.8 54.4,149.1 
	63.9,149.1 "/>
<path class="st0" d="M225.7,144.9c0-12.7-11.3-16.4-20.3-18.8c-6.1-1.6-11.3-2.5-11.3-5.2c0-1.9,2.1-3.5,5.3-3.5
	c3.9,0,8.7,2,10.9,5.6l13.1-11.5c-3.9-4.2-11.2-9.3-24.2-9.3c-14.8,0-24.7,8.5-24.7,20.1c0,12.8,10.9,16.4,19.7,18.6
	c6,1.5,11.1,2.3,11.1,4.9c0,1.9-2.6,3.7-6,3.7c-4,0-9.1-1.8-12.2-6.3l-9.3,6.7L163.6,110h-14.5l-12.5,34.3h-13.7v-4.5h11.2v-10.9
	h-11.2v-4.2h14v-10.9h-27v28.1h-9.5v-24.8H89.7v34.2H110v3.8h22.7l-1.4,3.9h15.4l2-5.8h15.4l2,5.8h10.8c5.1,3.9,11.9,6.9,22.7,6.9
	C216.2,165.9,225.7,156.1,225.7,144.9z M152,140.8l3.5-10.1l3.4,10.1H152z"/>
<path class="st0" d="M296.4,85.9h-13.7V0H0v282.7h282.7V181.8h13.7L296.4,85.9L296.4,85.9z M11.7,271.1V11.7h259.4v110.2h-16.8V94.2
	h-24.9V173h24.9v-28.3h16.8V271H11.7V271.1z"/>
</svg>
